<?xml version="1.0" standalone="no"?>
<!DOCTYPE svg PUBLIC "-//W3C//DTD SVG 20010904//EN"
 "http://www.w3.org/TR/2001/REC-SVG-20010904/DTD/svg10.dtd">
<svg version="1.0" xmlns="http://www.w3.org/2000/svg"
 width="2046.000000pt" height="2046.000000pt" viewBox="0 0 2046.000000 2046.000000"
 preserveAspectRatio="xMidYMid meet">
<metadata>
Created by potrace 1.14, written by Peter Selinger 2001-2017
</metadata>
<g transform="translate(0.000000,2046.000000) scale(0.100000,-0.100000)"
fill="#000000" stroke="none">
<path d="M10120 14761 c-40 -5 -46 -9 -51 -36 -4 -16 -7 -271 -8 -565 -1 -294
-4 -545 -7 -557 -3 -12 -12 -24 -20 -27 -8 -3 -101 -15 -207 -26 -266 -28
-411 -54 -617 -111 -170 -48 -352 -117 -379 -144 -14 -14 -17 -76 -21 -484 -4
-376 -8 -471 -19 -484 -12 -15 -65 -17 -570 -18 l-556 0 -230 -117 c-170 -86
-233 -124 -242 -142 -10 -19 -13 -135 -13 -455 0 -236 -4 -447 -9 -468 -5 -21
-28 -66 -50 -101 -53 -80 -115 -221 -144 -323 -31 -112 -32 -355 0 -458 23
-76 68 -188 101 -250 56 -108 204 -260 327 -336 58 -35 202 -99 260 -114 147
-39 333 -44 447 -11 102 29 175 46 197 46 22 0 23 -3 18 -39 -10 -78 -105
-254 -190 -351 -45 -52 -118 -107 -178 -135 -46 -21 -68 -25 -156 -25 -101 0
-104 1 -220 51 -160 70 -183 78 -220 79 -28 0 -35 -6 -53 -39 -18 -37 -101
-270 -119 -336 -5 -16 -14 -43 -20 -58 -28 -71 -5 -102 123 -165 84 -41 208
-81 312 -101 77 -14 292 -14 386 0 163 25 365 108 532 219 109 73 308 283 387
410 105 169 210 389 236 495 2 11 13 47 23 80 26 86 58 275 64 379 3 49 9 93
14 98 6 6 21 -13 38 -49 51 -107 148 -240 233 -322 173 -165 468 -273 706
-258 74 4 133 16 261 53 28 7 61 14 73 14 20 0 23 -4 18 -32 -19 -131 -151
-342 -270 -434 -85 -66 -140 -84 -252 -84 -104 0 -104 0 -300 86 -33 14 -80
32 -105 40 -65 20 -81 6 -118 -108 -17 -51 -49 -145 -71 -208 -57 -166 -59
-180 -24 -214 26 -26 198 -116 223 -116 6 0 39 -9 73 -20 105 -33 193 -42 347
-37 80 3 172 10 205 15 124 21 289 87 425 170 85 52 231 179 327 285 56 62
153 196 153 211 0 3 15 29 34 58 33 53 126 241 126 257 0 5 9 30 19 57 34 85
87 315 97 414 6 65 24 140 33 140 3 0 26 -34 51 -76 83 -142 260 -306 400
-371 176 -82 304 -110 473 -100 99 5 141 14 279 59 84 28 98 20 79 -44 -62
-207 -225 -413 -379 -479 -70 -30 -217 -30 -292 1 -30 12 -77 31 -105 42 -27
11 -68 28 -90 38 -53 23 -100 33 -124 25 -18 -6 -63 -99 -81 -170 -5 -16 -22
-68 -40 -115 -38 -101 -50 -142 -57 -191 -4 -32 -1 -39 29 -61 88 -65 256
-130 404 -157 84 -15 292 -14 406 3 104 16 215 50 318 99 163 76 379 255 512
422 140 177 292 492 348 723 5 23 14 59 19 80 19 73 41 292 41 404 0 189 -37
408 -97 567 -31 84 -92 195 -157 289 -94 136 -86 83 -86 566 l0 429 -36 33
c-19 19 -43 34 -53 34 -9 0 -21 4 -27 9 -5 5 -89 50 -186 100 l-178 91 -557 0
c-335 0 -564 4 -573 10 -13 8 -15 73 -16 480 -1 391 -3 474 -15 485 -15 15
-148 74 -239 107 -198 71 -516 138 -745 158 -214 18 -233 21 -244 34 -7 8 -11
205 -13 584 -2 452 -6 574 -16 584 -14 14 -251 21 -332 9z m555 -1521 c50 -6
128 -15 175 -21 46 -6 102 -14 125 -19 178 -41 244 -57 341 -87 61 -18 118
-41 128 -51 15 -17 16 -111 16 -1107 0 -1085 0 -1089 -21 -1152 -13 -36 -28
-63 -35 -63 -8 0 -14 5 -14 11 0 15 -86 187 -118 235 -164 248 -398 415 -683
489 -154 39 -391 41 -548 3 -426 -101 -703 -376 -810 -804 -5 -17 -13 -39 -19
-50 -10 -19 -11 -19 -18 1 -4 11 -32 76 -63 145 l-56 125 -3 1071 c-2 1048 -2
1071 17 1096 11 13 37 29 58 35 175 50 311 83 448 109 84 15 144 22 380 44
117 11 584 5 700 -10z m-1878 -1212 c11 -17 4 -741 -7 -752 -4 -4 -34 10 -67
31 -66 46 -200 110 -288 141 -268 91 -590 75 -860 -43 -108 -48 -117 -48 -126
-10 -4 17 -7 126 -8 243 -1 259 -1 260 107 333 41 28 87 55 101 59 14 5 277 9
583 9 435 1 559 -2 565 -11z m4186 -56 c42 -35 83 -73 89 -85 14 -24 25 -437
13 -484 -5 -23 -9 -24 -42 -18 -20 3 -45 13 -57 20 -33 21 -133 54 -226 74
-319 70 -659 3 -929 -184 -45 -30 -85 -55 -91 -55 -19 0 -21 48 -18 413 3 314
5 369 18 377 9 7 230 9 590 8 l575 -3 78 -63z m-4708 -611 c134 -27 178 -44
325 -123 86 -46 236 -187 298 -279 79 -118 141 -270 188 -464 23 -91 31 -406
15 -525 -34 -241 -83 -420 -165 -594 -51 -109 -174 -297 -262 -400 -58 -69
-88 -94 -218 -192 -203 -151 -416 -221 -661 -217 -117 1 -260 23 -316 46 -19
8 -59 25 -89 38 -82 34 -93 46 -86 93 4 21 15 60 25 85 10 25 29 75 42 109 13
35 31 67 39 72 9 4 42 -4 85 -22 75 -32 96 -38 195 -64 103 -25 255 -3 370 56
137 70 300 300 388 545 30 86 65 242 58 261 -7 19 -27 14 -109 -33 -75 -43
-137 -68 -242 -99 -111 -33 -314 -34 -419 -3 -229 68 -418 201 -525 369 -217
343 -172 759 116 1070 70 76 115 107 254 177 125 62 138 67 274 93 55 10 111
21 125 24 48 9 195 -2 295 -23z m2120 19 c169 -18 281 -51 413 -121 92 -50
147 -92 226 -173 151 -157 231 -314 293 -576 23 -95 25 -126 25 -325 1 -169
-3 -241 -16 -310 -10 -49 -22 -110 -26 -135 -15 -82 -103 -327 -152 -423 -32
-65 -155 -244 -219 -322 -129 -156 -344 -306 -539 -376 -233 -84 -583 -64
-793 43 -65 34 -70 50 -38 133 11 27 32 83 47 123 37 98 42 101 118 73 167
-62 206 -73 276 -78 71 -5 91 -2 239 37 50 13 165 95 212 151 40 48 89 116 89
124 0 2 13 23 29 47 39 58 131 254 131 280 0 7 9 42 20 76 25 81 27 162 4 162
-10 0 -48 -18 -86 -40 -39 -22 -74 -40 -79 -40 -4 0 -28 -9 -51 -19 -145 -65
-363 -82 -516 -40 -373 102 -619 380 -662 749 -34 293 111 614 355 789 114 82
250 144 355 163 49 9 219 34 245 37 6 0 51 -3 100 -9z m2305 -14 c138 -29 210
-54 310 -108 188 -102 348 -277 430 -468 17 -41 38 -90 46 -107 7 -18 26 -84
41 -145 25 -106 27 -128 27 -353 1 -213 -2 -253 -23 -355 -63 -315 -175 -559
-369 -805 -228 -289 -562 -459 -902 -460 -168 0 -329 35 -459 101 -59 29 -63
46 -32 129 11 27 29 77 41 110 28 79 46 110 62 108 7 -1 45 -13 83 -28 138
-53 191 -67 260 -72 66 -5 89 -1 234 37 56 14 157 90 219 165 144 171 259 424
278 613 6 50 4 62 -7 62 -13 0 -120 -52 -144 -69 -16 -13 -115 -47 -197 -70
-112 -31 -291 -29 -410 3 -93 26 -216 83 -295 137 -105 71 -228 223 -280 344
-59 136 -67 180 -67 355 -1 152 2 171 26 247 15 45 32 90 37 100 5 10 16 32
24 48 28 59 43 82 96 149 74 93 166 167 281 225 123 62 189 86 275 101 39 6
90 15 115 20 82 15 183 10 300 -14z"/>
<path d="M10140 12870 c-200 -54 -350 -204 -394 -393 -43 -185 7 -367 139
-502 65 -67 98 -89 190 -126 52 -21 76 -24 185 -24 109 0 133 3 185 24 142 57
247 160 306 297 31 72 34 89 37 198 3 103 1 127 -18 179 -31 85 -78 154 -150
220 -75 70 -154 110 -255 131 -96 20 -142 19 -225 -4z m247 -224 c101 -48 141
-91 177 -194 39 -113 1 -261 -89 -339 -97 -86 -224 -106 -338 -55 -76 35 -119
76 -157 153 -26 51 -30 70 -30 140 0 66 5 92 24 134 30 63 87 119 158 157 72
38 178 40 255 4z"/>
<path d="M7966 11034 c-91 -25 -185 -104 -230 -194 -51 -102 -61 -155 -61
-325 0 -142 3 -167 23 -225 50 -138 105 -205 217 -260 84 -42 87 -42 168 -38
103 7 174 37 241 104 94 94 136 178 156 312 35 233 -58 491 -213 589 -79 50
-199 65 -301 37z m192 -110 c101 -33 172 -134 198 -283 26 -144 11 -282 -40
-385 -34 -67 -42 -76 -101 -117 -48 -32 -54 -34 -137 -34 -77 1 -90 4 -125 28
-108 74 -156 168 -168 323 -10 134 6 234 52 323 71 139 183 189 321 145z"/>
<path d="M10215 11032 c-77 -26 -108 -46 -164 -108 -76 -83 -108 -164 -131
-339 -10 -68 -1 -154 28 -280 27 -118 121 -232 235 -286 64 -29 73 -31 155
-27 108 6 184 39 257 113 49 48 101 139 124 215 20 68 33 186 28 250 -15 174
-114 357 -233 431 -76 46 -209 60 -299 31z m197 -108 c58 -19 123 -74 150
-128 35 -69 68 -204 68 -282 0 -123 -55 -289 -113 -341 -58 -52 -90 -63 -186
-63 -86 0 -95 2 -134 29 -83 57 -115 108 -146 231 -27 106 -27 194 0 301 25
98 67 179 112 213 70 53 167 68 249 40z"/>
<path d="M12419 11035 c-91 -25 -184 -107 -235 -206 -55 -109 -77 -343 -46
-484 33 -146 119 -262 237 -320 53 -27 70 -30 151 -30 84 0 95 3 165 37 61 30
84 49 124 100 77 97 100 147 125 273 37 183 -45 444 -175 557 -88 78 -224 106
-346 73z m198 -111 c120 -40 198 -178 210 -371 5 -76 2 -110 -17 -188 -28
-117 -61 -172 -132 -219 -51 -35 -56 -36 -144 -36 -87 0 -94 2 -140 33 -99 66
-150 174 -161 343 -7 107 12 206 56 301 60 125 194 182 328 137z"/>
</g>
</svg>
